<svg xmlns="http://www.w3.org/2000/svg" viewBox="0 0 357.38 76.36"><defs><style>.cls-1{fill:#c33;}.cls-2{fill:#fcb817;}.cls-3{fill:#fdb913;}.cls-4{fill:#2b338c;}.cls-5{fill:#2b328c;}.cls-6{fill:#2c368a;}</style></defs><g id="Layer_2" data-name="Layer 2"><g id="Layer_1-2" data-name="Layer 1"><path class="cls-1" d="M50.41,52.71H40.57c-1.74-4.55-3.48-9.1-5.28-13.77-1.52-4-3.26-8.43-5-12.92L27.7,19.27C26.86,17,26,14.89,25.23,12.81c-.67,1.69-1.35,3.43-2,5.23-3,7.75-6.41,16.46-8.94,23.21-1.51,4-3,7.81-4.44,11.52H0C3.71,43.16,7,34.5,10,26.92,14.89,13.88,20,.84,20.29.11h9.83c.45,1.18,5.56,14.39,10.51,27.2,1.82,4.81,3.79,10,5.92,15.46Q48.41,47.56,50.41,52.71Z"/><path class="cls-2" d="M93.34,7.54a3.92,3.92,0,1,0,3.94,3.94A4,4,0,0,0,93.34,7.54Z"/><path class="cls-3" d="M72.71,11.46a20.64,20.64,0,0,0-19.92,26,21.94,21.94,0,0,0,.93,2.69,21.16,21.16,0,0,0,3.42,5.44,20.45,20.45,0,0,0,15.57,7.15,19.72,19.72,0,0,0,4-.4l-2.79,6.87-.29.72a11.51,11.51,0,0,1-21.24.3,7.77,7.77,0,0,1-.46-1H42.38a19.61,19.61,0,0,0,1.69,5l.07.15a20.8,20.8,0,0,0,38.12-1l9.32-23,.51-1.26v0A20,20,0,0,0,93.31,33c0-.29,0-.59,0-.89A20.61,20.61,0,0,0,72.71,11.46Zm2.63,31.78a11.44,11.44,0,0,1-13.76-8.41,11.75,11.75,0,0,1-.33-2.74,11.47,11.47,0,1,1,22.93,0,11.32,11.32,0,0,1-.31,2.62,10.85,10.85,0,0,1-1.29,3.19A11.57,11.57,0,0,1,75.34,43.24Z"/><path class="cls-4" d="M112.61,36h26.13a24,24,0,0,0,.39-4,20.52,20.52,0,0,0-4.83-13.15,20.64,20.64,0,1,0-15.79,33.89,19.91,19.91,0,0,0,7-1.24V41.08a11.3,11.3,0,0,1-7,2.47,11.5,11.5,0,1,1,10.17-16.8H112.61Z"/><path class="cls-4" d="M164.19,11.46a18.35,18.35,0,0,0-18.32,18.26v23h9.22v-23a9.11,9.11,0,0,1,9.1-9.16,9.21,9.21,0,0,1,9.22,9.16v23h9.16v-23A18.33,18.33,0,0,0,164.19,11.46Z"/><path class="cls-4" d="M221.4,0V32.09A11.47,11.47,0,1,1,210,20.56a11.19,11.19,0,0,1,6.74,2.25V12.59A18,18,0,0,0,210,11.46a20.63,20.63,0,1,0,20.62,20.63V0Z"/><path class="cls-4" d="M252.13,36h26.13a24,24,0,0,0,.4-4A20.66,20.66,0,1,0,258,52.71a20,20,0,0,0,7-1.24V41.08a11.35,11.35,0,0,1-7,2.47,11.5,11.5,0,1,1,10.17-16.8H252.13Z"/><path class="cls-5" d="M303.83,11.46a20.63,20.63,0,1,0,6.69,40.07V41.3a11.13,11.13,0,0,1-6.69,2.25,11.5,11.5,0,1,1,11.41-11.46V52.71h9.16V32.09A20.6,20.6,0,0,0,303.83,11.46Z"/><path class="cls-5" d="M343.16,25a2.11,2.11,0,0,1-1.24-2.07,2.34,2.34,0,0,1,2.31-2.37,2.43,2.43,0,0,1,2.42,2.37h9.1a11.52,11.52,0,0,0-23,0c0,8.71,10.56,11.07,13.65,13.26a4.3,4.3,0,0,1,1.86,3.37,4,4,0,0,1-4,4,4,4,0,0,1-3.94-4h-9.16a13.13,13.13,0,1,0,26.25,0C357.38,30.06,349.57,28.43,343.16,25Z"/><path class="cls-6" d="M303.78,28.16a3.93,3.93,0,1,0,3.94,3.94A4,4,0,0,0,303.78,28.16Z"/></g></g></svg>